<svg width="18" height="18" fill="none" xmlns="http://www.w3.org/2000/svg"><path d="M0 9a9 9 0 1018 0A9 9 0 000 9z" fill="#1BD741"/><path d="M2.705 15.301l.882-3.131a6.267 6.267 0 01-.865-3.185 6.294 6.294 0 016.286-6.287 6.294 6.294 0 016.287 6.287 6.294 6.294 0 01-6.287 6.287 6.278 6.278 0 01-3.073-.802l-3.23.831zM6.1 13.326l.192.118a5.21 5.21 0 002.716.761 5.226 5.226 0 005.22-5.22 5.226 5.226 0 00-5.22-5.22 5.226 5.226 0 00-5.22 5.22 5.2 5.2 0 00.824 2.816l.13.202-.508 1.804 1.866-.48z" fill="#fff"/><path d="M7.242 6.06l-.408-.023a.493.493 0 00-.35.12c-.198.172-.515.504-.612.936-.144.645.08 1.435.659 2.225.579.79 1.659 2.054 3.567 2.594.616.174 1.1.056 1.473-.182.296-.19.5-.493.573-.836l.065-.305a.211.211 0 00-.118-.236l-1.379-.635a.211.211 0 00-.255.063l-.542.701a.155.155 0 01-.174.052c-.37-.13-1.612-.65-2.293-1.962a.156.156 0 01.02-.175l.517-.598a.211.211 0 00.034-.222l-.594-1.39a.211.211 0 00-.183-.128z" fill="#fff"/></svg>