<svg width="32" height="32" fill="none" xmlns="http://www.w3.org/2000/svg"><path d="M10.31 20.688h17.003a.938.938 0 00.9-.68l3.75-13.125a.938.938 0 00-.9-1.196H8.148l-.67-3.015a.938.938 0 00-.915-.735H.938a.937.937 0 100 1.875H5.81l3.384 15.232A2.817 2.817 0 007.5 21.625a2.816 2.816 0 002.813 2.813h17a.937.937 0 100-1.875h-17a.938.938 0 01-.002-1.875zM29.82 7.563l-3.215 11.25h-15.54l-2.5-11.25H29.82z" fill="#303030"/><path d="M9.375 27.25a2.816 2.816 0 002.813 2.813A2.816 2.816 0 0015 27.25a2.816 2.816 0 00-2.813-2.813 2.816 2.816 0 00-2.812 2.813zm2.813-.938a.939.939 0 010 1.875.939.939 0 010-1.875zm10.437.938a2.816 2.816 0 002.813 2.813 2.816 2.816 0 002.812-2.813 2.816 2.816 0 00-2.813-2.813 2.816 2.816 0 00-2.812 2.813zm2.813-.938a.939.939 0 010 1.875.939.939 0 010-1.875z" fill="#303030"/></svg>