<svg width="32" height="19" fill="none" xmlns="http://www.w3.org/2000/svg"><mask id="a" maskUnits="userSpaceOnUse" x="-1" y="0" width="33" height="19" fill="#000"><path fill="#fff" d="M-1 0h33v19H-1z"/><path d="M31.324 10.202c0-.255-.05-.562-.05-.818 0-.306.05-.664-.154-.92-.307-.409-.92-.358-1.38-.358 0-.715-.052-1.431-.052-2.147 0-.511.154-1.33-.153-1.79-.511-.715-1.943-.613-2.812-.664v-.358C26.57 1.307 25.547 1 23.758 1c-1.943 0-2.454.665-2.607 2.607a68.812 68.812 0 00-.154 4.55c-1.891.154-3.885-.05-5.726-.05-1.636 0-3.22.05-4.857.102 0-1.534-.05-3.017-.153-4.55-.153-1.892-.665-2.608-2.607-2.608-1.38 0-2.761.153-2.965 1.687-.052.307-.052.614-.103.87-.869 0-2.198-.052-2.658.562-.665.818-.358 2.965-.358 3.885v.102c-.409 0-.87-.05-1.176.103-.562.255-.358 1.227-.358 1.738 0 .511-.153 1.33.46 1.431.307.051.665.103.972.051 0 1.176.05 2.403.358 3.426.306 1.329 1.584 1.329 2.811 1.329 0 .153 0 .358.052.511.153 1.636 1.073 1.79 2.505 1.79.92 0 2.402.357 2.965-.614.307-.562.255-1.534.255-2.147.052-1.33.052-2.659 0-3.988v-.307c3.477-.05 7.056.154 10.532-.05v3.578c0 .767-.102 1.738.153 2.505.41 1.278 1.892.971 3.017.971 1.227 0 2.3.052 2.607-1.38.051-.307.102-.613.102-.92 1.176 0 2.454-.051 2.761-1.278.256-.972.307-2.147.256-3.272.409 0 .869 0 1.175-.154.41-.255.307-.869.307-1.278zm-30.572.563c-.051-.307 0-.665 0-.972v-.562c0-.051.051-.307 0-.307.102-.05.409 0 .46 0h.358c0 .614-.051 1.278-.051 1.943-.256-.051-.563-.051-.767-.102zm1.738 3.578c-.153-.562-.102-1.175-.102-1.738-.102-1.482-.102-3.016-.102-4.55 0-.869-.103-1.943.102-2.812.256-1.022 1.227-.92 2.198-.92-.05 1.687.103 3.374.103 5.01-.052 2.045-.154 4.141-.052 6.186-1.175 0-1.84.051-2.147-1.176zm7.21 1.994c-.051.767.05 1.33-.767 1.534-.46.102-1.125 0-1.585 0-.87 0-1.687-.409-1.943-1.278-.153-.665 0-1.636 0-2.3 0-1.637-.05-3.273 0-4.909 0-1.073 0-2.147-.05-3.22 0-.87.05-1.688.05-2.557 0-1.431.92-1.738 2.199-1.738.613 0 1.431.307 1.789.87.204.306.102 1.124.102 1.533.051.818.051 1.687.102 2.505.052 1.585.103 3.22.103 4.806.05 1.533.102 3.17 0 4.754zm.716-5.521v-1.84c1.584-.052 3.22-.052 4.856-.103 1.892 0 3.886.205 5.726.051v1.84c-3.527.154-7.055 0-10.582.052zM26.058 6.01c-.05 1.074-.05 2.147-.05 3.221.05 1.534 0 3.067 0 4.601 0 1.687.51 3.886-1.892 3.937-.41 0-1.125.153-1.534 0-1.074-.46-.87-1.33-.92-2.199a67.545 67.545 0 010-4.55c0-1.585.05-3.118.102-4.703.051-1.687-.46-4.601 1.994-4.601 1.431 0 1.994.511 2.25 1.994.153.766.05 1.533.05 2.3zm2.966 6.697c0 .512.05 1.125-.103 1.585-.306 1.176-1.073 1.125-2.096 1.125 0-.767-.102-1.534-.05-2.25V9.18c-.052-1.687.101-3.323.05-5.01.46 0 .92 0 1.33.102.817.204.817.307.869 1.176.102 1.125 0 2.3.05 3.374-.05 1.38-.05 2.659-.05 3.885zm.767-1.84c-.052-.665-.052-1.33-.052-1.943v-.102h.512c.255 0 .255-.051.306.153.052.154 0 .41 0 .563 0 .204.052.409.052.613v.665h-.052c-.255 0-.51.051-.766.051z"/></mask><path d="M31.324 10.202c0-.255-.05-.562-.05-.818 0-.306.05-.664-.154-.92-.307-.409-.92-.358-1.38-.358 0-.715-.052-1.431-.052-2.147 0-.511.154-1.33-.153-1.79-.511-.715-1.943-.613-2.812-.664v-.358C26.57 1.307 25.547 1 23.758 1c-1.943 0-2.454.665-2.607 2.607a68.812 68.812 0 00-.154 4.55c-1.891.154-3.885-.05-5.726-.05-1.636 0-3.22.05-4.857.102 0-1.534-.05-3.017-.153-4.55-.153-1.892-.665-2.608-2.607-2.608-1.38 0-2.761.153-2.965 1.687-.052.307-.052.614-.103.87-.869 0-2.198-.052-2.658.562-.665.818-.358 2.965-.358 3.885v.102c-.409 0-.87-.05-1.176.103-.562.255-.358 1.227-.358 1.738 0 .511-.153 1.33.46 1.431.307.051.665.103.972.051 0 1.176.05 2.403.358 3.426.306 1.329 1.584 1.329 2.811 1.329 0 .153 0 .358.052.511.153 1.636 1.073 1.79 2.505 1.79.92 0 2.402.357 2.965-.614.307-.562.255-1.534.255-2.147.052-1.33.052-2.659 0-3.988v-.307c3.477-.05 7.056.154 10.532-.05v3.578c0 .767-.102 1.738.153 2.505.41 1.278 1.892.971 3.017.971 1.227 0 2.3.052 2.607-1.38.051-.307.102-.613.102-.92 1.176 0 2.454-.051 2.761-1.278.256-.972.307-2.147.256-3.272.409 0 .869 0 1.175-.154.41-.255.307-.869.307-1.278zm-30.572.563c-.051-.307 0-.665 0-.972v-.562c0-.051.051-.307 0-.307.102-.05.409 0 .46 0h.358c0 .614-.051 1.278-.051 1.943-.256-.051-.563-.051-.767-.102zm1.738 3.578c-.153-.562-.102-1.175-.102-1.738-.102-1.482-.102-3.016-.102-4.55 0-.869-.103-1.943.102-2.812.256-1.022 1.227-.92 2.198-.92-.05 1.687.103 3.374.103 5.01-.052 2.045-.154 4.141-.052 6.186-1.175 0-1.84.051-2.147-1.176zm7.21 1.994c-.051.767.05 1.33-.767 1.534-.46.102-1.125 0-1.585 0-.87 0-1.687-.409-1.943-1.278-.153-.665 0-1.636 0-2.3 0-1.637-.05-3.273 0-4.909 0-1.073 0-2.147-.05-3.22 0-.87.05-1.688.05-2.557 0-1.431.92-1.738 2.199-1.738.613 0 1.431.307 1.789.87.204.306.102 1.124.102 1.533.051.818.051 1.687.102 2.505.052 1.585.103 3.22.103 4.806.05 1.533.102 3.17 0 4.754zm.716-5.521v-1.84c1.584-.052 3.22-.052 4.856-.103 1.892 0 3.886.205 5.726.051v1.84c-3.527.154-7.055 0-10.582.052zM26.058 6.01c-.05 1.074-.05 2.147-.05 3.221.05 1.534 0 3.067 0 4.601 0 1.687.51 3.886-1.892 3.937-.41 0-1.125.153-1.534 0-1.074-.46-.87-1.33-.92-2.199a67.545 67.545 0 010-4.55c0-1.585.05-3.118.102-4.703.051-1.687-.46-4.601 1.994-4.601 1.431 0 1.994.511 2.25 1.994.153.766.05 1.533.05 2.3zm2.966 6.697c0 .512.05 1.125-.103 1.585-.306 1.176-1.073 1.125-2.096 1.125 0-.767-.102-1.534-.05-2.25V9.18c-.052-1.687.101-3.323.05-5.01.46 0 .92 0 1.33.102.817.204.817.307.869 1.176.102 1.125 0 2.3.05 3.374-.05 1.38-.05 2.659-.05 3.885zm.767-1.84c-.052-.665-.052-1.33-.052-1.943v-.102h.512c.255 0 .255-.051.306.153.052.154 0 .41 0 .563 0 .204.052.409.052.613v.665h-.052c-.255 0-.51.051-.766.051z" fill="#BA0F08"/><path d="M31.324 10.202c0-.255-.05-.562-.05-.818 0-.306.05-.664-.154-.92-.307-.409-.92-.358-1.38-.358 0-.715-.052-1.431-.052-2.147 0-.511.154-1.33-.153-1.79-.511-.715-1.943-.613-2.812-.664v-.358C26.57 1.307 25.547 1 23.758 1c-1.943 0-2.454.665-2.607 2.607a68.812 68.812 0 00-.154 4.55c-1.891.154-3.885-.05-5.726-.05-1.636 0-3.22.05-4.857.102 0-1.534-.05-3.017-.153-4.55-.153-1.892-.665-2.608-2.607-2.608-1.38 0-2.761.153-2.965 1.687-.052.307-.052.614-.103.87-.869 0-2.198-.052-2.658.562-.665.818-.358 2.965-.358 3.885v.102c-.409 0-.87-.05-1.176.103-.562.255-.358 1.227-.358 1.738 0 .511-.153 1.33.46 1.431.307.051.665.103.972.051 0 1.176.05 2.403.358 3.426.306 1.329 1.584 1.329 2.811 1.329 0 .153 0 .358.052.511.153 1.636 1.073 1.79 2.505 1.79.92 0 2.402.357 2.965-.614.307-.562.255-1.534.255-2.147.052-1.33.052-2.659 0-3.988v-.307c3.477-.05 7.056.154 10.532-.05v3.578c0 .767-.102 1.738.153 2.505.41 1.278 1.892.971 3.017.971 1.227 0 2.3.052 2.607-1.38.051-.307.102-.613.102-.92 1.176 0 2.454-.051 2.761-1.278.256-.972.307-2.147.256-3.272.409 0 .869 0 1.175-.154.41-.255.307-.869.307-1.278zm-30.572.563c-.051-.307 0-.665 0-.972v-.562c0-.051.051-.307 0-.307.102-.05.409 0 .46 0h.358c0 .614-.051 1.278-.051 1.943-.256-.051-.563-.051-.767-.102zm1.738 3.578c-.153-.562-.102-1.175-.102-1.738-.102-1.482-.102-3.016-.102-4.55 0-.869-.103-1.943.102-2.812.256-1.022 1.227-.92 2.198-.92-.05 1.687.103 3.374.103 5.01-.052 2.045-.154 4.141-.052 6.186-1.175 0-1.84.051-2.147-1.176zm7.21 1.994c-.051.767.05 1.33-.767 1.534-.46.102-1.125 0-1.585 0-.87 0-1.687-.409-1.943-1.278-.153-.665 0-1.636 0-2.3 0-1.637-.05-3.273 0-4.909 0-1.073 0-2.147-.05-3.22 0-.87.05-1.688.05-2.557 0-1.431.92-1.738 2.199-1.738.613 0 1.431.307 1.789.87.204.306.102 1.124.102 1.533.051.818.051 1.687.102 2.505.052 1.585.103 3.22.103 4.806.05 1.533.102 3.17 0 4.754zm.716-5.521v-1.84c1.584-.052 3.22-.052 4.856-.103 1.892 0 3.886.205 5.726.051v1.84c-3.527.154-7.055 0-10.582.052zM26.058 6.01c-.05 1.074-.05 2.147-.05 3.221.05 1.534 0 3.067 0 4.601 0 1.687.51 3.886-1.892 3.937-.41 0-1.125.153-1.534 0-1.074-.46-.87-1.33-.92-2.199a67.545 67.545 0 010-4.55c0-1.585.05-3.118.102-4.703.051-1.687-.46-4.601 1.994-4.601 1.431 0 1.994.511 2.25 1.994.153.766.05 1.533.05 2.3zm2.966 6.697c0 .512.05 1.125-.103 1.585-.306 1.176-1.073 1.125-2.096 1.125 0-.767-.102-1.534-.05-2.25V9.18c-.052-1.687.101-3.323.05-5.01.46 0 .92 0 1.33.102.817.204.817.307.869 1.176.102 1.125 0 2.3.05 3.374-.05 1.38-.05 2.659-.05 3.885zm.767-1.84c-.052-.665-.052-1.33-.052-1.943v-.102h.512c.255 0 .255-.051.306.153.052.154 0 .41 0 .563 0 .204.052.409.052.613v.665h-.052c-.255 0-.51.051-.766.051z" stroke="#BA0F08" stroke-width=".4" mask="url(#a)"/></svg>