<svg width="178" height="42" fill="none" xmlns="http://www.w3.org/2000/svg"><path d="M26.796 23.95h-5.801l-5.132-7.963H15.8v7.963h-4.836v-7.963h-.062L5.8 23.95H0l6.05-8.352L.156 8.025h5.77l4.976 7.542h.062V8.025H15.8v7.542h.063l4.976-7.542h5.754L20.7 15.598l6.097 8.352zm15.924-6.563H32.333c.166 2.312 1.623 3.468 4.37 3.468 1.752 0 3.292-.415 4.619-1.244v3.546c-1.472.788-3.385 1.181-5.739 1.181-2.57 0-4.567-.71-5.987-2.13-1.42-1.43-2.13-3.421-2.13-5.972 0-2.644.767-4.738 2.301-6.283 1.534-1.545 3.421-2.317 5.66-2.317 2.323 0 4.117.69 5.382 2.068 1.275 1.38 1.913 3.25 1.913 5.614v2.069zm-4.556-3.017c0-2.281-.923-3.422-2.768-3.422-.788 0-1.473.327-2.053.98-.57.653-.918 1.467-1.042 2.442h5.863zm22.55 9.58h-4.945V11.493h-2.706c-.57 4.82-1.426 8.133-2.567 9.937-1.13 1.804-2.716 2.706-4.758 2.706-.705 0-1.343-.103-1.913-.31v-3.344c.363.166.746.248 1.15.248.975 0 1.784-.907 2.427-2.721.642-1.814 1.223-5.143 1.741-9.984h11.57V23.95zm18.46-6.563H68.785c.166 2.312 1.623 3.468 4.37 3.468 1.752 0 3.292-.415 4.62-1.244v3.546c-1.473.788-3.386 1.181-5.74 1.181-2.57 0-4.566-.71-5.987-2.13-1.42-1.43-2.13-3.421-2.13-5.972 0-2.644.767-4.738 2.301-6.283 1.535-1.545 3.422-2.317 5.661-2.317 2.322 0 4.116.69 5.38 2.068 1.276 1.38 1.914 3.25 1.914 5.614v2.069zm-4.557-3.017c0-2.281-.923-3.422-2.768-3.422-.788 0-1.472.327-2.053.98-.57.653-.918 1.467-1.042 2.442h5.863zm6.656 9.16v-3.562c1.535.705 3.064 1.058 4.588 1.058 2.208 0 3.313-.607 3.313-1.82 0-1.254-1.203-1.881-3.609-1.881h-2.223v-3.033h2.255c2.063 0 3.094-.601 3.094-1.804 0-1.068-.922-1.602-2.768-1.602-1.39 0-2.778.311-4.168.933V8.445c1.867-.54 3.551-.81 5.055-.81 4.634 0 6.951 1.437 6.951 4.309 0 1.99-1.233 3.219-3.701 3.685v.078c1.306.114 2.328.508 3.064 1.182.736.674 1.104 1.53 1.104 2.566 0 3.204-2.597 4.806-7.792 4.806-1.98 0-3.7-.244-5.163-.731zm23.717.808c-2.655 0-4.744-.74-6.268-2.224-1.513-1.492-2.27-3.514-2.27-6.065 0-2.633.788-4.691 2.364-6.174 1.576-1.493 3.706-2.24 6.391-2.24 2.644 0 4.718.747 6.221 2.24 1.503 1.483 2.255 3.448 2.255 5.894 0 2.644-.778 4.733-2.333 6.268-1.545 1.534-3.665 2.301-6.36 2.301zm.124-12.939c-1.161 0-2.063.4-2.706 1.198-.643.798-.964 1.928-.964 3.39 0 3.059 1.234 4.588 3.701 4.588 2.354 0 3.53-1.57 3.53-4.712 0-2.976-1.187-4.464-3.561-4.464zm13.95 12.939c-.809 0-1.483-.248-2.022-.746a2.4 2.4 0 01-.808-1.835c0-.747.274-1.358.824-1.835.56-.477 1.254-.716 2.084-.716.839 0 1.524.244 2.053.731.539.477.808 1.084.808 1.82 0 .757-.275 1.379-.824 1.866-.539.477-1.244.715-2.115.715zM139.623 0v3.888c-.497.384-1.161.638-1.99.762-2.333.363-3.728.596-4.184.7-.943.218-1.633.513-2.068.886-.425.373-.778.918-1.058 1.633-.269.716-.456 1.586-.559 2.613h.062c1.182-1.358 2.763-2.037 4.743-2.037 2.26 0 4.018.673 5.272 2.021 1.265 1.338 1.897 3.188 1.897 5.552 0 2.53-.772 4.552-2.317 6.065-1.545 1.504-3.639 2.255-6.283 2.255-2.768 0-4.873-.88-6.314-2.643-1.441-1.763-2.161-4.313-2.161-7.652 0-1.596.119-3.038.357-4.323.239-1.296.596-2.437 1.073-3.422.477-.995 1.063-1.824 1.758-2.488.705-.663 1.42-1.145 2.146-1.446a11.53 11.53 0 012.161-.684c.705-.156 2.473-.451 5.304-.887.933-.238 1.653-.503 2.161-.793zm-9.937 13.919c-.021.249-.031.736-.031 1.462 0 1.586.316 2.85.948 3.794.643.933 1.53 1.4 2.66 1.4 1.026 0 1.861-.394 2.503-1.182.643-.788.965-1.84.965-3.157 0-1.338-.327-2.38-.98-3.126-.643-.757-1.514-1.135-2.613-1.135-.715 0-1.394.186-2.037.56-.632.373-1.104.834-1.415 1.384zm29.548 3.468h-10.389c.166 2.312 1.623 3.468 4.37 3.468 1.753 0 3.292-.415 4.619-1.244v3.546c-1.472.788-3.385 1.181-5.738 1.181-2.571 0-4.567-.71-5.988-2.13-1.42-1.43-2.13-3.421-2.13-5.972 0-2.644.767-4.738 2.301-6.283 1.535-1.545 3.422-2.317 5.661-2.317 2.323 0 4.116.69 5.381 2.068 1.275 1.38 1.913 3.25 1.913 5.614v2.069zm-4.557-3.017c0-2.281-.922-3.422-2.768-3.422-.788 0-1.472.327-2.053.98-.57.653-.917 1.467-1.042 2.442h5.863zm22.55 9.58h-4.945V11.493h-2.706c-.57 4.82-1.426 8.133-2.566 9.937-1.13 1.804-2.716 2.706-4.759 2.706-.705 0-1.343-.103-1.913-.31v-3.344c.363.166.747.248 1.151.248.975 0 1.783-.907 2.426-2.721.643-1.814 1.223-5.143 1.742-9.984h11.57V23.95zM7.747 34.155H5.094v7.638H3.677v-7.638h-2.66v-1.21h6.73v1.21zm10.05 7.638H16.38V38.13h-1.184c-.57 0-1.088.46-1.555 1.382l-1.15 2.28h-1.64l1.485-2.73c.346-.633.764-1.05 1.253-1.252-.691-.092-1.218-.346-1.58-.76-.364-.415-.545-.933-.545-1.556 0-.783.282-1.402.846-1.857.57-.461 1.368-.691 2.394-.691h3.093v8.847zm-1.417-4.847v-2.79h-1.676c-1.193 0-1.789.451-1.789 1.356 0 .956.58 1.434 1.737 1.434h1.728zm18.318 4.847H32.78l-3.957-4.372h-.034v4.372H27.44V37.42h-.035l-3.965 4.372h-1.892l4.389-4.562-4.122-4.285h1.806l3.784 4.138h.035v-4.138h1.348v4.138h.034l3.785-4.138h1.823l-4.139 4.285 4.406 4.562zm10.862-4.069h-6.246c.023.984.288 1.745.795 2.28.507.536 1.204.804 2.09.804.997 0 1.913-.328 2.748-.985v1.33c-.777.565-1.805.847-3.084.847-1.25 0-2.232-.4-2.946-1.2-.715-.807-1.072-1.939-1.072-3.396 0-1.377.39-2.497 1.167-3.361.783-.87 1.754-1.305 2.911-1.305 1.158 0 2.054.375 2.687 1.123.634.75.95 1.789.95 3.12v.742zm-1.45-1.201c-.007-.818-.205-1.455-.597-1.91-.386-.455-.924-.682-1.616-.682a2.29 2.29 0 00-1.702.717c-.466.478-.754 1.103-.864 1.874h4.778zm12.356 5.27h-1.408v-7.646h-2.056c-.236 2.862-.643 4.872-1.219 6.03-.57 1.158-1.339 1.737-2.306 1.737-.294 0-.547-.04-.76-.121v-1.218c.2.103.42.155.656.155 1.267 0 2.082-2.595 2.445-7.784h4.648v8.847zm11.511 0H66.56V40.41h-.035C65.91 41.47 65.002 42 63.804 42c-.882 0-1.573-.233-2.074-.7-.495-.466-.743-1.085-.743-1.857 0-1.653.973-2.615 2.92-2.886l2.653-.371c0-1.504-.608-2.255-1.823-2.255-1.066 0-2.028.363-2.886 1.088v-1.451c.87-.553 1.872-.83 3.007-.83 2.079 0 3.119 1.1 3.119 3.3v5.755zm-1.417-4.476l-2.134.294c-.657.092-1.152.257-1.486.493-.334.23-.502.642-.502 1.235 0 .432.153.786.458 1.063.311.27.723.406 1.236.406.703 0 1.281-.245 1.736-.734.461-.496.692-1.12.692-1.875v-.882zm12.435 4.476h-1.417V38.13h-1.184c-.57 0-1.089.46-1.555 1.382l-1.15 2.28h-1.64l1.485-2.73c.346-.633.763-1.05 1.253-1.252-.691-.092-1.218-.346-1.581-.76-.363-.415-.544-.933-.544-1.556 0-.783.282-1.402.846-1.857.57-.461 1.368-.691 2.393-.691h3.094v8.847zm-1.417-4.847v-2.79H75.9c-1.192 0-1.788.451-1.788 1.356 0 .956.579 1.434 1.737 1.434h1.728zm20.057 4.847h-1.417V40.41h-.035C95.567 41.47 94.66 42 93.462 42c-.882 0-1.573-.233-2.074-.7-.495-.466-.743-1.085-.743-1.857 0-1.653.974-2.615 2.92-2.886l2.653-.371c0-1.504-.608-2.255-1.823-2.255-1.066 0-2.028.363-2.886 1.088v-1.451c.87-.553 1.872-.83 3.007-.83 2.08 0 3.119 1.1 3.119 3.3v5.755zm-1.417-4.476l-2.134.294c-.657.092-1.152.257-1.486.493-.334.23-.501.642-.501 1.235 0 .432.152.786.458 1.063.31.27.722.406 1.235.406.703 0 1.282-.245 1.737-.734.46-.496.69-1.12.69-1.875v-.882zm11.942-3.162h-2.652v7.638h-1.417v-7.638h-2.661v-1.21h6.73v1.21zm10.456 7.638h-1.408v-7.646h-2.056c-.236 2.862-.642 4.872-1.218 6.03-.571 1.158-1.34 1.737-2.307 1.737-.294 0-.547-.04-.76-.121v-1.218c.201.103.42.155.656.155 1.267 0 2.082-2.595 2.445-7.784h4.648v8.847zm12.288-4.069h-6.246c.023.984.288 1.745.795 2.28.507.536 1.203.804 2.09.804.997 0 1.913-.328 2.748-.985v1.33c-.778.565-1.806.847-3.084.847-1.25 0-2.232-.4-2.947-1.2-.714-.807-1.071-1.939-1.071-3.396 0-1.377.389-2.497 1.166-3.361.784-.87 1.754-1.305 2.912-1.305s2.053.375 2.687 1.123c.634.75.95 1.789.95 3.12v.742zm-1.451-1.201c-.006-.818-.205-1.455-.596-1.91-.386-.455-.925-.682-1.616-.682a2.29 2.29 0 00-1.702.717c-.466.478-.754 1.103-.864 1.874h4.778zm11.458-2.368h-2.652v7.638h-1.417v-7.638h-2.661v-1.21h6.73v1.21zm11.416 7.638h-1.279v-7.059c-.127.248-.32.596-.579 1.045l-4.087 6.014h-1.468v-8.847h1.296v6.972a9.02 9.02 0 01.449-.855l4.199-6.117h1.469v8.847zm12.512 0h-1.987l-3.905-4.251h-.035v4.25h-1.417v-8.846h1.417v4.052h.035l3.715-4.052h1.858l-4.104 4.268 4.423 4.579zm10.085 0h-1.417V40.41h-.034c-.617 1.06-1.524 1.59-2.722 1.59-.881 0-1.572-.233-2.074-.7-.495-.466-.743-1.085-.743-1.857 0-1.653.974-2.615 2.921-2.886l2.652-.371c0-1.504-.608-2.255-1.823-2.255-1.065 0-2.027.363-2.886 1.088v-1.451c.87-.553 1.872-.83 3.007-.83 2.079 0 3.119 1.1 3.119 3.3v5.755zm-1.417-4.476l-2.134.294c-.657.092-1.152.257-1.486.493-.334.23-.501.642-.501 1.235 0 .432.153.786.458 1.063.311.27.723.406 1.235.406.703 0 1.282-.245 1.737-.734.461-.496.691-1.12.691-1.875v-.882z" fill="#303030"/></svg>