<svg width="34" height="34" fill="none" xmlns="http://www.w3.org/2000/svg"><path d="M33.222 31.08l-10.33-10.33a12.565 12.565 0 002.695-7.79C25.587 5.998 19.922.333 12.96.333 5.997.333.333 5.998.333 12.96c0 6.963 5.664 12.627 12.627 12.627 2.936 0 5.642-1.008 7.789-2.695l10.33 10.331a1.51 1.51 0 001.072.444 1.515 1.515 0 001.071-2.586zM3.363 12.96c0-5.291 4.305-9.596 9.597-9.596 5.291 0 9.596 4.305 9.596 9.596 0 5.292-4.305 9.597-9.596 9.597-5.292 0-9.597-4.305-9.597-9.597z" fill="#000"/><path d="M15.99 11.445h-1.515V9.93a1.515 1.515 0 00-3.03 0v1.515H9.928a1.515 1.515 0 000 3.03h1.515v1.516a1.515 1.515 0 103.03 0v-1.515h1.516a1.515 1.515 0 100-3.03z" fill="#000"/></svg>