<svg width="29" height="26" fill="none" xmlns="http://www.w3.org/2000/svg"><path d="M7.958 14.326c-.267-.012-.573-.04-.895-.071-.896-.084-1.924-.18-2.631.025m3.526.046l2.701 8.208m-2.701-8.208h2.976a.345.345 0 00.32-.232c.046-.116.08-.243.115-.37.034-.128.069-.256.114-.372.092.44.195.893.298 1.345.103.452.206.904.298 1.345.045.324.55.324.595 0 .206-.905.412-1.82.618-2.736.206-.916.412-1.832.618-2.736.153 1.198.266 2.396.379 3.594.158 1.677.316 3.354.583 5.031.046.371.595.232.64-.092m-7.554-4.777L1.409 5.614m3.023 8.666c-2.519.788 1.282 4.498 2.06 5.194 1.282 1.159 2.702 2.133 4.167 3.06M4.432 14.28l.028.096s0 0 0 0h.002l-.03-.096zm6.227 8.254l.054-.084h-.001v-.001l-.053.085zM1.41 5.614h0c.736-1.677 2.078-3.654 3.853-4.411 2.269-.985 4.363-.987 6.5.236 1.18.665 2.239 1.746 2.787 3.014C15.666 1.72 18.824.183 21.756.639l-.016.1c4.304.648 6.456 5.379 6.136 9.599M1.409 5.614c-.93 2.168-.463 4.794.133 6.974a.38.38 0 00.204.271c.096.048.207.05.305.02a.433.433 0 00.246-.185.407.407 0 00.033-.344c-.912-3.604-.764-7.535 2.436-9.908.74-.545 1.764-.923 2.816-1.066 1.052-.143 2.119-.05 2.943.334 1.772.828 3.472 2.38 3.606 4.46h0M1.409 5.614l12.722.556m13.745 4.168c-.138 1.16-.32 2.597-1.282 3.385m1.282-3.385l.1.007v.005l-.1-.012zm-1.282 3.385c-.93.716-2.285.666-3.472.623a21.76 21.76 0 00-.787-.02 29.7 29.7 0 00-1.455.05c-1.042.052-2.135.106-3.123-.05-.596-.093-.87-.51-1.1-.974-.13.677-.284 1.355-.438 2.034-.279 1.228-.559 2.463-.706 3.717m11.08-5.38l.064.077-.002.002-.061-.079zm-11.08 5.38l.1.011-.001.003-.1-.014zM14.13 6.17v.005m0-.005v.005m0 0c.029.26.221.402.42.402.2 0 .392-.142.42-.402h0m-.84 0h.84m0 0v-.003m0 .003v-.003m0 0c.157-1.882 1.378-3.327 2.967-4.11 1.59-.782 3.538-.894 5.132-.121h0M14.97 6.172l8.1-4.23m0 0c1.71.82 2.932 2.396 3.583 4.215.652 1.819.73 3.871.165 5.634-.176.547-.477.92-.857 1.175-.381.255-.847.396-1.357.467-.51.071-1.056.073-1.596.056a45.205 45.205 0 01-.584-.023c-.335-.014-.66-.028-.96-.028H18.26h0-.002 0-.002 0-.002 0-.002 0-.022 0-.002 0-.007 0-.006 0-.006 0-.004 0-.009 0-.011 0-.01 0-.551 0-.012 0-.004 0-.005 0-.005 0-.007 0-.008 0-.002 0-.002 0-.011 0-.002 0-.002 0-.002 0a.387.387 0 01-.03-.042 1.486 1.486 0 01-.087-.162 6.536 6.536 0 01-.202-.496c-.118-.318-.227-.653-.285-.83l-.023-.071h0M23.07 1.94l-6.135 9.896m0 0l-.002-.004m.002.004l-.002-.004m0 0c-.084-.228-.278-.327-.465-.295a.457.457 0 00-.369.41c-.15 1.09-.377 2.158-.606 3.236-.077.36-.153.72-.228 1.084l1.668-4.435zm-5.825-.164h0a.347.347 0 01.15-.245.418.418 0 01.252-.067c.163.007.357.105.391.307.091.439.194.89.297 1.341h0c.07.306.14.612.206.914.191-.81.376-1.626.56-2.444h0c.218-.961.435-1.923.664-2.873.035-.2.228-.3.391-.306a.418.418 0 01.253.067.346.346 0 01.148.244s0 0 0 0l-.099.015c.293 1.75.455 3.518.617 5.293.082.891.163 1.784.262 2.677l-4.09-4.921zm0 0v.004m0-.004v.004m0 0a11.67 11.67 0 01-.142 1.022c-.036.19-.08.367-.13.506a.95.95 0 01-.076.172.251.251 0 01-.066.082h0m.414-1.782l-.414 1.782m0 0l-.005.003m.005-.003l-.005.003m0 0a.164.164 0 01-.057.022.724.724 0 01-.12.016 2.696 2.696 0 01-.34-.006 9.546 9.546 0 01-.308-.027l-.058-.005a3.54 3.54 0 00-.293-.02H6.034c-.136 0-.281-.004-.432-.007l-.073-.001a16.25 16.25 0 00-.544-.005c-.367.004-.742.03-1.077.12-.336.09-.64.247-.856.517-.216.27-.335.643-.323 1.148v.002m7.961-1.754l-7.96 1.754m0 0c.023.536.275 1.065.588 1.545.252.388.55.753.81 1.073l.18.222h0m-1.579-2.84l1.58 2.84m0 0c.875 1.075 1.888 2.007 2.943 2.89h.002m-2.945-2.89l2.945 2.89m0 0c1.654 1.327 3.465 2.419 5.27 3.507.6.361 1.199.723 1.791 1.092h0m-7.061-4.598l7.061 4.598m0 0l.008.004m-.008-.004l.008.004m0 0a.461.461 0 00.205.046.46.46 0 00.206-.046h0m-.411 0h.41m0 0l.004-.001m-.003.001l.003-.001m0 0c4.317-2.372 7.806-5.489 10.881-9.393a.444.444 0 00-.03-.608.416.416 0 00-.275-.129.379.379 0 00-.307.146h0m-10.27 9.984l10.27-9.984m0 0l-.002.003m.002-.003l-.002.003m0 0c-2.012 2.593-4.248 4.996-6.938 6.89l6.938-6.89zm-10.666 9.052h-.003l-.013.099.018-.098h-.002zm-7.846-5.141h0z" fill="#BA0F08" stroke="#BA0F08" stroke-width=".2"/></svg>