<svg width="18" height="18" fill="none" xmlns="http://www.w3.org/2000/svg"><path d="M0 9a9 9 0 1018 0A9 9 0 000 9z" fill="#7D3DAF"/><path d="M14.693 5.802l-.004-.014c-.287-1.163-1.584-2.41-2.774-2.67l-.013-.002a15.417 15.417 0 00-5.803 0l-.014.003c-1.19.26-2.487 1.506-2.774 2.669l-.004.014a11.358 11.358 0 000 4.893l.004.014c.275 1.113 1.475 2.303 2.62 2.63v1.298c0 .47.573.7.899.361l1.314-1.366a15.368 15.368 0 003.758-.25l.013-.004c1.19-.26 2.487-1.507 2.774-2.669l.004-.014c.355-1.623.355-3.27 0-4.893zm-1.04 4.658c-.193.758-1.177 1.7-1.959 1.875a14.373 14.373 0 01-3.086.25.072.072 0 00-.055.021l-.96.986-1.02 1.047a.12.12 0 01-.207-.082v-2.15a.074.074 0 00-.06-.072c-.782-.174-1.766-1.117-1.959-1.876a10.308 10.308 0 010-4.422c.193-.758 1.177-1.7 1.959-1.875 1.788-.34 3.6-.34 5.388 0 .783.174 1.766 1.117 1.958 1.875.32 1.468.32 2.955 0 4.423z" fill="#fff"/><path d="M10.701 11.452c-.12-.037-.235-.061-.34-.105-1.104-.458-2.118-1.048-2.922-1.953-.457-.514-.815-1.095-1.117-1.71-.144-.29-.265-.594-.388-.895-.112-.274.053-.558.228-.764.163-.195.373-.343.601-.452.178-.086.353-.037.483.114.281.326.539.668.748 1.046.128.232.093.516-.14.675-.056.038-.108.083-.16.127a.527.527 0 00-.122.127.35.35 0 00-.023.308c.287.789.77 1.402 1.564 1.733.127.052.255.114.401.097.245-.029.324-.298.496-.438a.468.468 0 01.563-.025c.181.115.357.238.53.362.172.122.342.241.5.38.152.134.204.309.119.49-.157.332-.384.608-.713.785-.092.05-.203.066-.308.098-.12-.037.105-.032 0 0zm-1.698-6.26c1.442.04 2.627.998 2.88 2.424.044.243.06.491.079.738.008.104-.05.202-.163.203-.115.002-.167-.095-.175-.199-.015-.205-.025-.411-.053-.615A2.577 2.577 0 009.495 5.59c-.16-.03-.325-.037-.488-.054-.103-.01-.238-.017-.261-.145-.02-.107.071-.193.173-.198.028-.002.056 0 .084 0 1.442.04-.028 0 0 0z" fill="#fff"/><path d="M11.195 8.034c-.002.018-.004.06-.014.1-.038.145-.258.163-.309.017a.436.436 0 01-.017-.14c0-.305-.067-.61-.22-.876a1.631 1.631 0 00-.685-.642 1.968 1.968 0 00-.545-.167c-.082-.013-.165-.022-.248-.033-.1-.014-.153-.078-.149-.177.005-.092.072-.158.173-.153.331.019.65.09.945.246.598.317.94.817 1.04 1.485.004.03.012.06.014.091.006.075.01.15.015.249-.002.018-.006-.099 0 0z" fill="#fff"/><path d="M10.298 7.999c-.12.002-.185-.065-.198-.175-.008-.077-.015-.156-.034-.23a.648.648 0 00-.239-.376.624.624 0 00-.195-.094c-.088-.026-.18-.019-.269-.04-.095-.024-.149-.101-.133-.191a.173.173 0 01.182-.14c.56.04.96.33 1.016.988.004.047.009.096-.001.14-.018.076-.074.114-.13.118-.12.002.056-.004 0 0z" fill="#fff"/></svg>