<svg width="56" height="56" fill="none" xmlns="http://www.w3.org/2000/svg"><g clip-path="url(#clip0_53_342)" fill="#BA0F08"><path d="M46.848 34.922a22.42 22.42 0 003.705-12.369C50.553 10.117 40.435 0 27.999 0 15.563 0 5.446 10.117 5.446 22.553c0 4.564 1.364 8.815 3.704 12.369L.328 47.788l10.095-1.882L12.305 56l8.32-12.133a22.452 22.452 0 007.374 1.24c2.582 0 5.063-.438 7.375-1.24L43.694 56l1.882-10.094 10.094 1.882-8.822-12.866zm-32.76 12.64l-1.026-5.506-5.506 1.027 3.716-5.42a22.7 22.7 0 006.268 4.866l-3.451 5.033zm-5.34-25.009C8.747 11.937 17.383 3.3 27.999 3.3s19.253 8.637 19.253 19.253S38.615 41.806 28 41.806 8.747 33.169 8.747 22.553zm34.19 19.503l-1.028 5.506-3.45-5.033a22.7 22.7 0 006.268-4.865l3.715 5.418-5.506-1.026z"/><path d="M23.979 27.506l-5.367-5.366-2.333 2.334 7.7 7.7 15.74-15.74-2.333-2.334L23.98 27.506z"/></g><defs><clipPath id="clip0_53_342"><path fill="#fff" d="M0 0h56v56H0z"/></clipPath></defs></svg>