<svg width="59" height="58" fill="none" xmlns="http://www.w3.org/2000/svg"><g clip-path="url(#clip0_117_825)" fill="#BA0F08"><path d="M18.107 11.624a.908.908 0 00-.908.908 2 2 0 01-1.998 1.998 2 2 0 01-1.998-1.998 2 2 0 011.998-1.998.908.908 0 100-1.816 3.819 3.819 0 00-3.814 3.814 3.819 3.819 0 003.814 3.814 3.819 3.819 0 003.814-3.814.908.908 0 00-.908-.908zm0 10.656a.908.908 0 00-.908.908 2 2 0 01-1.998 1.998 2 2 0 01-1.998-1.998 2 2 0 011.998-1.998.908.908 0 000-1.816 3.819 3.819 0 00-3.814 3.814 3.819 3.819 0 003.814 3.814 3.819 3.819 0 003.814-3.814.908.908 0 00-.908-.908zm10.655 1.938h-6.78a.908.908 0 100 1.816h6.78a.908.908 0 000-1.816zm0-3.876h-6.78a.908.908 0 000 1.816h6.78a.908.908 0 000-1.816zm-1.937 14.531h-4.843a.908.908 0 000 1.816h4.843a.908.908 0 000-1.816zm1.937-3.875h-6.78a.908.908 0 000 1.816h6.78a.908.908 0 000-1.816zm8.718-17.436H21.983a.908.908 0 000 1.816H37.48a.908.908 0 000-1.816zm-3.874-3.875H21.982a.908.908 0 000 1.816h11.624a.908.908 0 000-1.816zM18.107 32.935a.908.908 0 00-.908.909 2 2 0 01-1.998 1.998 2 2 0 01-1.998-1.998 2 2 0 011.998-1.998.908.908 0 100-1.817 3.819 3.819 0 00-3.814 3.814 3.819 3.819 0 003.814 3.815 3.819 3.819 0 003.814-3.815.908.908 0 00-.908-.908z"/><path d="M41.355 0H8.42a2.849 2.849 0 00-2.845 2.846V43.53a2.849 2.849 0 002.845 2.846h16.468a.908.908 0 000-1.817H8.42a1.03 1.03 0 01-1.029-1.029V2.846c0-.568.462-1.03 1.03-1.03h32.934c.568 0 1.03.462 1.03 1.03v30.029a.908.908 0 101.816 0V2.845A2.849 2.849 0 0041.355 0z"/><path d="M49.93 36.827a3.35 3.35 0 00-2.356.662c-.532-.892-1.438-1.525-2.488-1.63a3.352 3.352 0 00-2.355.661c-.532-.892-1.439-1.525-2.488-1.63a3.355 3.355 0 00-1.854.347V23.672c0-.939-.4-1.839-1.096-2.47a3.345 3.345 0 00-2.574-.843c-1.677.168-2.99 1.684-2.99 3.451v11.595l-2.67 2.67a5.716 5.716 0 00-1.531 5.384l2.027 8.613A7.66 7.66 0 0037.039 58h8.191c4.24 0 7.69-3.449 7.69-7.689V40.278c0-1.767-1.314-3.283-2.99-3.451zm1.173 13.484a5.88 5.88 0 01-5.873 5.873h-8.19a5.85 5.85 0 01-5.717-4.528l-2.027-8.614a3.91 3.91 0 011.048-3.684l1.385-1.385v3.136a.908.908 0 101.816 0V23.81c0-.845.595-1.567 1.355-1.643.436-.044.853.092 1.174.382.317.287.499.697.499 1.123v15.984a.908.908 0 001.816 0v-1.453a1.517 1.517 0 011.673-1.506c.76.076 1.354.798 1.354 1.644v2.283a.908.908 0 001.817 0v-1.453a1.517 1.517 0 011.673-1.506c.759.076 1.354.799 1.354 1.644v2.284a.908.908 0 101.816 0V40.14a1.517 1.517 0 011.673-1.506c.76.076 1.354.798 1.354 1.644V50.31z"/></g><defs><clipPath id="clip0_117_825"><path fill="#fff" transform="translate(.247)" d="M0 0h58v58H0z"/></clipPath></defs></svg>