<svg width="59" height="58" fill="none" xmlns="http://www.w3.org/2000/svg"><g clip-path="url(#clip0_117_865)"><path d="M58.5 9.946l-.001-.019a.805.805 0 00-.005-.075l-.005-.027a.814.814 0 00-.042-.164l-.004-.013-2.305-5.9a1.53 1.53 0 00-1.433-.978h-4.196a.828.828 0 100 1.656h4.116l1.834 4.695h-17.34l-1.087-4.695h6.404a.828.828 0 100-1.656H10.931a1.53 1.53 0 00-1.434.979l-2.305 5.9-.004.012a.81.81 0 00-.042.164l-.004.027a.86.86 0 00-.005.075l-.001.02v12.17a.828.828 0 101.656 0v-11.34h17.555v12.59a1.255 1.255 0 002.084.938l4.387-3.886 4.386 3.885a1.255 1.255 0 002.084-.938V10.778h17.556v37.147a1.08 1.08 0 01-1.078 1.078H40.58l-.001-.028a3.238 3.238 0 00-.01-.222 2.984 2.984 0 003.52-1.756 2.96 2.96 0 00-.107-2.483l-.018-.037a2.985 2.985 0 00-.106-.184l-.022-.035a2.955 2.955 0 00-.124-.18l-.003-.003a3.029 3.029 0 00-.136-.167l-.026-.03a2.97 2.97 0 00-.145-.15l-.03-.028a2.906 2.906 0 00-.163-.143l-.006-.005a2.929 2.929 0 00-.171-.127L43 43.403a2.985 2.985 0 00-.18-.112l-.015-.01c.35-.303.626-.686.806-1.127a2.96 2.96 0 00-.012-2.28 2.958 2.958 0 00-1.622-1.605l-12.89-5.255 6-1.858a2.72 2.72 0 001.792-3.393 2.659 2.659 0 00-.908-1.313 2.788 2.788 0 00-2.288-.536l-.012.002c-.046.01-4.645 1.045-9.45 1.982l-.625.12-.484.093a204.274 204.274 0 01-1.265.237c-6.033 1.112-7.728 1.132-8.198 1.068h-.005l-.021-.004-.014-.002a.647.647 0 01-.08-.018l-.135-.055.17-.415a1.638 1.638 0 00-.163-1.548 1.638 1.638 0 00-.742-.6l-4.448-1.815a1.637 1.637 0 00-1.262.007c-.406.171-.721.49-.888.897L.622 39.203a1.65 1.65 0 00.904 2.15l4.449 1.814a1.652 1.652 0 002.15-.904l.04-.1 1.025.417.002.001a9.096 9.096 0 013.655 2.727 10.761 10.761 0 004.321 3.224l1.154.47H9.87a1.08 1.08 0 01-1.078-1.077V45.83a.828.828 0 10-1.656 0v2.095a2.737 2.737 0 002.734 2.734h12.514l10.67 4.35a2.985 2.985 0 003.884-1.634c.193-.473.255-.968.203-1.444.555.08 1.13.007 1.652-.218.53-.23.97-.594 1.281-1.054h15.692a2.737 2.737 0 002.734-2.734V9.946zm-29.196-5.52h7.028l1.086 4.695h-9.2l1.086-4.695zM26.517 9.12H9.177l1.834-4.695h16.593L26.517 9.12zm11.115 13.35l-3.983-3.53a1.25 1.25 0 00-1.662 0l-3.983 3.53V10.778h9.628V22.47zM6.592 41.63L2.16 39.822l5.433-13.326 4.435 1.808L6.593 41.63zm33.089 4.998l-.951-.388h-.002l-9.9-4.037a.828.828 0 10-.625 1.534l9.9 4.036c.04.017.08.036.12.056l.03.02c.028.015.055.03.081.047l.036.026c.022.017.046.033.067.05l.038.034.057.052.036.039.049.054.034.045.041.056.031.05a.786.786 0 01.035.057c.01.017.018.036.027.054.01.02.02.038.028.058l.023.058.022.059.017.06c.005.02.012.04.016.06l.012.063c.003.02.008.04.01.062.003.02.004.042.006.063l.005.063v.062c-.001.022 0 .043-.002.065-.001.02-.004.04-.007.061a.813.813 0 01-.008.067l-.012.06-.015.067c-.005.02-.012.039-.018.058l-.022.067-.02.045-.004.01c-.13.3-.368.537-.68.671a1.403 1.403 0 01-1.078.014l-1.754-.715-.025-.009-.024-.011-8.052-3.283a.828.828 0 10-.625 1.534l8.051 3.283.026.009c.008.003.015.008.023.01a1.324 1.324 0 01-1 2.451l-10.817-4.41h-.001l-5.066-2.066a9.093 9.093 0 01-3.655-2.727 10.762 10.762 0 00-4.321-3.225l-1.027-.419 2.045-5.016 1.933-4.741.143.058c.134.055.325.133.84.152.644.03 1.71-.038 3.617-.308 1.297-.183 2.89-.448 4.747-.79l.138-.025.262-.049.207-.038.239-.045.257-.049.208-.04.32-.06.165-.032.5-.097a383.206 383.206 0 009.617-2.014l.062-.01c.532-.079 1.053.229 1.206.725a1.06 1.06 0 01-.699 1.325l-8.211 2.541a.828.828 0 00-.068 1.559l15.033 6.13c.328.133.583.386.72.712.137.326.14.685.006 1.013a1.325 1.325 0 01-1.218.824h-.008c-.04 0-.08-.002-.12-.006-.012 0-.024-.003-.036-.005a1.017 1.017 0 01-.092-.013l-.057-.014a.867.867 0 01-.069-.017c-.023-.006-.046-.016-.07-.024-.018-.006-.037-.012-.055-.02l-9.9-4.036a.828.828 0 10-.625 1.534l12.002 4.894a1.327 1.327 0 01.72.712 1.313 1.313 0 01-.358 1.517l-.022.02a1.327 1.327 0 01-1.34.202l-1.15-.469z" fill="#BA0F08"/></g><defs><clipPath id="clip0_117_865"><path fill="#fff" transform="translate(.5)" d="M0 0h58v58H0z"/></clipPath></defs></svg>