<svg width="59" height="58" fill="none" xmlns="http://www.w3.org/2000/svg"><path d="M47.725 38.688h-5.812v1.937h5.812v-1.938zm-7.75 0h-5.812v1.937h5.812v-1.938zm-7.75 0h-5.812v1.937h5.812v-1.938z" fill="#BA0F08"/><path d="M57.4 20.09L38.23.92a2.894 2.894 0 00-2.059-.857h-.009c-.768 0-1.504.309-2.043.857L13.787 21.25H3.164a2.906 2.906 0 00-2.906 2.906v27.125a2.906 2.906 0 002.906 2.906h14.353l2.89 2.893c.544.55 1.286.858 2.06.858h.007c.769 0 1.506-.31 2.044-.858l2.897-2.893h22.247a2.906 2.906 0 002.907-2.906V29.033l4.826-4.826a2.895 2.895 0 00.005-4.116zm-12.323-9.583L34.333 21.25h-8.226L40.963 6.394l4.114 4.113zm-9.585-8.221a.955.955 0 011.367 0l2.734 2.738L23.366 21.25h-6.84L35.492 2.286zM23.147 55.714a.942.942 0 01-.678.29.969.969 0 01-.69-.29l-1.522-1.527h4.418l-1.528 1.527zm27.484-4.433a.969.969 0 01-.969.968H3.164a.969.969 0 01-.969-.968V37.718h48.436v13.563zm0-15.5H2.195v-5.812h48.436v5.812zm0-7.75H2.195v-3.875c0-.534.434-.968.969-.968h46.498a.97.97 0 01.97.968v3.875zm5.399-5.199l-3.462 3.461v-2.137a2.906 2.906 0 00-2.906-2.906H37.07l9.373-9.373 9.584 9.583a.97.97 0 01.29.693.95.95 0 01-.286.68z" fill="#BA0F08"/><path d="M9.549 50.338c.141-.123.274-.255.396-.397a3.841 3.841 0 005.1.657 3.939 3.939 0 001.681-3.193 3.875 3.875 0 00-3.875-3.874 2.934 2.934 0 00-.573.048l-.026.007h-.028a3.825 3.825 0 00-2.279 1.286 3.875 3.875 0 10-.396 5.466zm3.057-4.85a1.18 1.18 0 01.245-.02c1.07 0 1.938.867 1.938 1.937a1.9 1.9 0 01-.381 1.137c-.035.047-.062.097-.102.146-.007.008-.016.013-.024.02a1.93 1.93 0 01-1.43.635 1.937 1.937 0 01-.246-3.855zm-5.567-.02a1.937 1.937 0 110 3.875 1.937 1.937 0 010-3.875z" fill="#BA0F08"/></svg>