<svg width="59" height="56" fill="none" xmlns="http://www.w3.org/2000/svg"><path d="M58.154 33.437a5.37 5.37 0 00-1.573-3.804 6 6 0 001.546-4.613c-.283-3.072-3.05-5.479-6.302-5.479H36.897c.74-2.245 1.923-6.36 1.923-9.666 0-5.242-4.453-9.667-7.25-9.667-2.508 0-4.304 1.414-4.379 1.472a1.21 1.21 0 00-.454.945v8.194l-6.962 15.078-.288.148v-.462c0-.667-.541-1.208-1.208-1.208H6.195a6.047 6.047 0 00-6.041 6.041V49.75a6.047 6.047 0 006.041 6.041h7.25a6.055 6.055 0 005.687-3.994c2.01 1.034 4.717 1.578 6.397 1.578H47.71c2.632 0 4.935-1.774 5.477-4.22a5.456 5.456 0 00-.435-3.632 5.415 5.415 0 002.419-7.25 5.416 5.416 0 002.982-4.836zm-5.097 2.982c-.466.056-.86.372-1.01.82-.147.447-.024.937.319 1.261.614.578.955 1.356.955 2.187a3.012 3.012 0 01-2.678 2.982c-.467.056-.86.372-1.01.82a1.21 1.21 0 00.319 1.261c.795.75 1.114 1.8.875 2.883-.298 1.349-1.608 2.325-3.115 2.325H25.529c-1.963 0-5.254-.92-6.395-2.064a1.209 1.209 0 00-2.064.855 3.63 3.63 0 01-3.625 3.626h-7.25A3.63 3.63 0 012.57 49.75V30.416a3.63 3.63 0 013.625-3.625H17.07V28c0 .418.218.807.576 1.03.352.212.797.233 1.174.05l2.417-1.208c.244-.121.44-.324.556-.573l7.25-15.709a1.23 1.23 0 00.11-.507V3.28c.503-.278 1.376-.655 2.417-.655 1.325 0 4.834 3.291 4.834 7.25 0 4.253-2.315 10.384-2.337 10.445-.14.37-.092.787.133 1.116.227.326.6.522.995.522h16.63c2.015 0 3.726 1.443 3.895 3.284a3.61 3.61 0 01-1.72 3.42 1.211 1.211 0 00.082 2.105 2.992 2.992 0 011.655 2.67 3.012 3.012 0 01-2.68 2.982z" fill="#BA0F08"/></svg>