<svg width="32" height="32" fill="none" xmlns="http://www.w3.org/2000/svg"><g clip-path="url(#clip0_53_224)"><g clip-path="url(#clip1_53_224)"><path d="M32 5.988v-.01a.404.404 0 00-.003-.042l-.003-.015a.492.492 0 00-.023-.09l-.002-.008-1.272-3.255a.844.844 0 00-.79-.54H27.59a.457.457 0 100 .914h2.271l1.012 2.59h-9.567l-.6-2.59h3.534a.457.457 0 000-.914H5.755a.844.844 0 00-.791.54L3.692 5.823l-.002.008a.446.446 0 00-.023.09l-.003.015a.473.473 0 00-.002.041v.01l-.001.003v6.713a.457.457 0 10.914 0V6.447h9.686v6.945a.693.693 0 001.15.518l2.42-2.144 2.42 2.144a.692.692 0 001.15-.518V6.447h9.685v20.495a.595.595 0 01-.595.595h-8.378v-.016l-.006-.123a1.646 1.646 0 001.936-2.227 1.674 1.674 0 00-.053-.111l-.01-.02a1.614 1.614 0 00-.058-.102l-.013-.02a1.711 1.711 0 00-.159-.209 1.624 1.624 0 00-.08-.083l-.017-.016a1.643 1.643 0 00-.09-.078l-.003-.003a1.627 1.627 0 00-.094-.07l-.018-.012a1.742 1.742 0 00-.1-.062l-.007-.005c.193-.167.345-.379.444-.622a1.633 1.633 0 00-.006-1.259 1.632 1.632 0 00-.895-.884l-7.112-2.9 3.31-1.025a1.501 1.501 0 00.99-1.872 1.468 1.468 0 00-.502-.724 1.538 1.538 0 00-1.262-.296l-.007.001c-.025.006-2.563.576-5.213 1.093l-.345.067-.267.051-.076.014a116.295 116.295 0 01-.622.117c-3.329.613-4.264.624-4.523.589h-.003l-.012-.002-.007-.001-.006-.001a.356.356 0 01-.038-.01l-.075-.03.093-.229a.904.904 0 00-.089-.854.903.903 0 00-.41-.331L4.254 14.27a.903.903 0 00-.696.004.904.904 0 00-.49.495l-3 7.36a.91.91 0 00.498 1.186l2.455 1a.911.911 0 001.186-.499l.022-.055.566.23v.001a5.019 5.019 0 012.017 1.505 5.936 5.936 0 002.384 1.779l.637.26H5.17a.595.595 0 01-.595-.595v-1.157a.457.457 0 10-.914 0v1.157A1.51 1.51 0 005.17 28.45h6.904l5.886 2.4a1.647 1.647 0 002.255-1.698 1.7 1.7 0 00.912-.12 1.63 1.63 0 00.707-.582h8.657A1.51 1.51 0 0032 26.942V5.988zM15.892 2.942h3.877l.6 2.59h-5.077l.6-2.59zm-1.538 2.59H4.787L5.8 2.943h9.155l-.6 2.59zm6.133 7.366l-2.198-1.947a.69.69 0 00-.917 0l-2.197 1.947V6.447h5.312v6.45zM3.362 23.468l-2.447-.997 2.998-7.352 2.446.997-2.997 7.352zm18.255 2.758l-.525-.214h-.001l-5.462-2.227a.457.457 0 10-.345.846l5.462 2.227.066.03.018.011c.015.009.03.017.044.027l.02.014.037.028.02.018.032.029.02.022.027.03.018.024c.008.01.017.02.024.031.006.009.01.018.017.027l.019.032.015.03.015.032.013.032.012.033.01.033.008.033.007.034.006.034.003.035.002.035v.07l-.004.034-.005.037-.007.033c-.002.012-.004.024-.008.037l-.01.032c-.004.012-.007.025-.012.037a.624.624 0 00-.011.025l-.002.006a.71.71 0 01-.375.37.774.774 0 01-.595.007l-.968-.394-.014-.005-.013-.006-4.442-1.812a.457.457 0 10-.345.847l4.442 1.81.014.006.013.006a.731.731 0 01-.551 1.352l-5.969-2.433-2.795-1.14a5.019 5.019 0 01-2.017-1.505 5.917 5.917 0 00-2.384-1.779l-.567-.231 1.129-2.768 1.066-2.615.079.032c.074.03.18.073.464.083.355.017.942-.02 1.995-.17a65.619 65.619 0 002.62-.435l.075-.014a246.906 246.906 0 01.26-.048l.13-.025.143-.027.114-.022.177-.033.091-.018.276-.053a210.16 210.16 0 005.306-1.112l.034-.005a.6.6 0 01.665.4.582.582 0 01-.385.731l-4.53 1.402a.457.457 0 00-.038.86l8.294 3.382c.18.073.322.213.397.393.076.18.077.378.003.559a.725.725 0 01-.672.454h-.004c-.022 0-.044 0-.066-.003l-.02-.002a.401.401 0 01-.05-.008l-.032-.007-.038-.01c-.013-.003-.026-.009-.038-.013l-.031-.01-5.462-2.228a.457.457 0 10-.345.846l6.622 2.7a.725.725 0 01.424.883.724.724 0 01-.224.347l-.013.011a.732.732 0 01-.738.112l-.635-.259z" fill="#BA0F08"/></g></g><defs><clipPath id="clip0_53_224"><path fill="#fff" d="M0 0h32v32H0z"/></clipPath><clipPath id="clip1_53_224"><path fill="#fff" transform="translate(0 .5)" d="M0 0h32v32H0z"/></clipPath></defs></svg>