<svg width="32" height="32" fill="none" xmlns="http://www.w3.org/2000/svg"><g clip-path="url(#clip0_53_231)" fill="#BA0F08"><path d="M10.33 25.836a.457.457 0 00.468-.444v-.29c.663-.156 1.177-.631 1.315-1.258.165-.75-.242-1.45-1.037-1.783l-.278-.118v-1.35c.165.063.268.126.274.13a.486.486 0 00.65-.113.428.428 0 00-.117-.617 2.738 2.738 0 00-.807-.329v-.244a.457.457 0 00-.469-.443.457.457 0 00-.469.443v.188a2.17 2.17 0 00-.216.037 1.4 1.4 0 00-1.089 1.095c-.11.54.104 1.079.547 1.372a5.7 5.7 0 00.758.398v1.74c-.19-.029-.34-.094-.572-.238a.485.485 0 00-.65.128.43.43 0 00.137.614c.41.255.711.354 1.085.388v.25c0 .245.21.444.47.444zm.865-2.173a.756.756 0 01-.397.497v-1.24c.316.17.464.44.397.743zM9.64 21.386c-.17-.113-.195-.327-.164-.477.016-.078.09-.337.38-.4h.004v1.005a2.663 2.663 0 01-.22-.128zM26.733 1H5.267a.457.457 0 00-.469.443v19.232c0 .245.21.444.469.444a.457.457 0 00.469-.444V1.887h20.528V5.67c0 .245.21.443.47.443a.457.457 0 00.468-.443V1.443A.457.457 0 0026.733 1z"/><path d="M26.733 7.302a.457.457 0 00-.469.443v21.876l-1.32-1.47a.48.48 0 00-.358-.157.48.48 0 00-.357.157l-1.79 1.991-1.789-1.991a.48.48 0 00-.357-.157.48.48 0 00-.357.157l-1.79 1.991-1.789-1.991a.48.48 0 00-.357-.157.48.48 0 00-.357.157l-1.79 1.991-1.789-1.991a.48.48 0 00-.357-.157.48.48 0 00-.357.157l-1.79 1.991-1.79-1.991a.48.48 0 00-.356-.157.48.48 0 00-.357.157l-1.321 1.47v-6.87a.457.457 0 00-.47-.444.457.457 0 00-.468.443v8.077c0 .186.123.352.307.416a.487.487 0 00.519-.129l1.79-1.992 1.789 1.992c.089.1.22.156.357.156a.48.48 0 00.357-.156l1.79-1.992 1.789 1.992c.089.1.22.156.357.156a.48.48 0 00.357-.156L16 29.122l1.79 1.992c.089.1.22.156.357.156a.48.48 0 00.357-.156l1.79-1.992 1.789 1.992c.089.1.22.156.357.156a.48.48 0 00.357-.156l1.79-1.992 1.789 1.992a.48.48 0 00.519.129.445.445 0 00.307-.416V7.745a.457.457 0 00-.469-.443zm-5.051-4.391H10.318a.457.457 0 00-.469.444v1.91c0 .246.21.444.469.444h11.364a.457.457 0 00.469-.443V3.355a.456.456 0 00-.469-.444zm-.468 1.911H10.787V3.798h10.426v1.024zM7.666 12.398h10.102a.457.457 0 00.468-.443.457.457 0 00-.468-.444H7.666a.457.457 0 00-.469.444c0 .245.21.443.469.443zm-.469-2.833c0 .245.21.444.469.444h10.102a.457.457 0 00.468-.444.457.457 0 00-.468-.443H7.666a.457.457 0 00-.469.443z"/><path d="M7.666 14.787h10.102a.457.457 0 00.468-.444.457.457 0 00-.468-.443H7.666a.457.457 0 00-.469.443c0 .245.21.444.469.444zm0 2.389h10.102a.457.457 0 00.468-.443.457.457 0 00-.468-.444H7.666a.457.457 0 00-.469.444c0 .244.21.443.469.443zm16.668-5.665h-2.147a.457.457 0 00-.469.444c0 .245.21.443.47.443h2.146a.457.457 0 00.469-.443.457.457 0 00-.47-.444zm0-2.389h-2.147a.457.457 0 00-.469.443c0 .245.21.444.47.444h2.146a.457.457 0 00.469-.444.457.457 0 00-.47-.443zm0 4.778h-2.147a.457.457 0 00-.469.443c0 .245.21.444.47.444h2.146a.457.457 0 00.469-.444.457.457 0 00-.47-.443zm0 2.39h-2.147a.457.457 0 00-.469.443c0 .244.21.443.47.443h2.146a.457.457 0 00.469-.443.457.457 0 00-.47-.444zm0 2.388h-2.147a.457.457 0 00-.469.443c0 .245.21.444.47.444h2.146a.457.457 0 00.469-.444.457.457 0 00-.47-.443z"/></g><defs><clipPath id="clip0_53_231"><path fill="#fff" transform="translate(0 1)" d="M0 0h32v30.27H0z"/></clipPath></defs></svg>