<svg width="32" height="32" fill="none" xmlns="http://www.w3.org/2000/svg"><path d="M16.77 14.669a.468.468 0 00-.676.15l-.01.017a.476.476 0 01-.663.117.469.469 0 00-.653.115l-.683.976a.469.469 0 00.768.537l.46-.657c.432.12.901.027 1.255-.251l.692.484a.469.469 0 00.537-.768l-1.028-.72z" fill="#BA0F08"/><path d="M16.085 16.187l-.46.657a.469.469 0 00.767.537l.684-.975a.469.469 0 00-.115-.653.476.476 0 01-.117-.663l.011-.014a.47.47 0 00-.089-.687l-1.028-.72a.469.469 0 10-.538.768l.691.484c-.14.428-.067.9.194 1.266z" fill="#BA0F08"/><path d="M15.738 15.521c.223 0 .43.09.583.252a.469.469 0 00.681-.644A1.74 1.74 0 0014 16.322a1.74 1.74 0 002.967 1.23.469.469 0 10-.662-.664.801.801 0 11-.566-1.367z" fill="#BA0F08"/><path d="M27.99 18.041v-3.754a2.314 2.314 0 00-2.312-2.312h-2.487c.145-1.256-.265-2.362-1.13-2.968-.734-.514-1.684-.606-2.677-.26-.938.328-1.81 1.016-2.455 1.938-.286.408-.514.84-.679 1.29h-3.052l6.56-9.368 9.102 6.374-1.386 1.98a.469.469 0 00.767.538l1.512-2.159a.72.72 0 00-.176-1.002l-9.46-6.623a.716.716 0 00-1.002.176l-2.17 3.099V3.12a.72.72 0 00-.719-.719H4.983a.72.72 0 00-.72.72v2.566a.469.469 0 10.938 0V3.339H6.56v8.636H5.312c-.037 0-.074.001-.11.003V7.562a.469.469 0 10-.938 0v4.665A2.315 2.315 0 003 14.287V28.4a2.314 2.314 0 002.312 2.311h3.5a.469.469 0 100-.937h-3.5A1.376 1.376 0 013.937 28.4V14.287a1.377 1.377 0 011.375-1.374h20.366c.758 0 1.375.616 1.375 1.374v3.69h-3.356a3.37 3.37 0 00-3.367 3.366 3.37 3.37 0 003.367 3.367h3.356v3.69c0 .758-.617 1.374-1.375 1.374h-3.582a.469.469 0 000 .937h3.582A2.315 2.315 0 0027.99 28.4v-3.755a2.412 2.412 0 001.852-2.343v-1.917a2.413 2.413 0 00-1.852-2.344zm-10.293-6.818c1.069-1.527 2.785-2.176 3.826-1.448.599.42.863 1.243.722 2.2h-4.982c.12-.259.264-.51.433-.752zm-1.689-4.895l-3.954 5.647h-2.31V3.34h6.264v2.99zm-8.511-2.99h1.31v8.637h-1.31V3.34zm21.407 18.964c0 .811-.66 1.47-1.47 1.47h-3.737c-1.34 0-2.43-1.09-2.43-2.429 0-1.34 1.09-2.429 2.43-2.429h3.737c.81 0 1.47.66 1.47 1.47v1.918z" fill="#BA0F08"/><path d="M15.663 10.584A5.67 5.67 0 0010 16.247a5.67 5.67 0 005.663 5.663 5.67 5.67 0 005.664-5.663 5.67 5.67 0 00-5.664-5.663zm0 10.389a4.731 4.731 0 01-4.725-4.726 4.731 4.731 0 014.725-4.726 4.731 4.731 0 014.726 4.726 4.731 4.731 0 01-4.726 4.726z" fill="#BA0F08"/><path d="M16.164 15.241h-.8a.428.428 0 010-.854h1.53a.469.469 0 000-.938h-.575v-.396a.469.469 0 00-.937 0v.396h-.017c-.753 0-1.365.612-1.365 1.365 0 .752.612 1.364 1.365 1.364h.8a.427.427 0 010 .855h-1.53a.469.469 0 100 .937h.747v.396a.469.469 0 00.937 0v-.405a1.367 1.367 0 001.21-1.355c0-.753-.612-1.365-1.365-1.365z" fill="#BA0F08"/></svg>