<svg width="32" height="32" fill="none" xmlns="http://www.w3.org/2000/svg"><g clip-path="url(#clip0_53_260)" fill="#BA0F08"><path d="M31.898 18.11a.47.47 0 00-.66-.076l-.921.73-7.446-9.776 4.257-2.732a.47.47 0 00-.508-.79l-4.685 3.007a.474.474 0 00-.12.68l.853 1.119-.607.464-2.407-.795a.48.48 0 00-.147-.024h-5.51a.47.47 0 00-.457.356l-.31 1.24-.782-.33a.47.47 0 00-.237-.033l-2.178.255-.74-.43.704-1.218a.474.474 0 00-.172-.642L.705 3.85a.47.47 0 10-.47.814L7.383 8.79l-6.17 10.685-.508-.294a.47.47 0 10-.47.813l2.482 1.433c.222.128.514.05.641-.172l.36-.622 1.013.54a1.971 1.971 0 002.361 2.782c.001.42.134.824.388 1.16a1.975 1.975 0 002.178.69c.005.393.126.787.373 1.128a1.96 1.96 0 001.602.817c.204 0 .405-.032.598-.094.005.402.133.792.374 1.125a1.96 1.96 0 001.602.816 1.95 1.95 0 001.152-.375l1.096-.792a1.99 1.99 0 00.567-.636l1.927 1.05a1.962 1.962 0 001.501.16 1.96 1.96 0 001.175-.947c.197-.36.274-.764.228-1.164a1.975 1.975 0 002.09-.996c.202-.37.272-.775.228-1.164a1.975 1.975 0 002.32-2.159 1.942 1.942 0 00.914-.048 1.96 1.96 0 001.175-.948 1.96 1.96 0 00.021-1.85l.824-.584.435.571a.474.474 0 00.666.084l1.296-1.029a.47.47 0 00.076-.66zM2.78 20.38l-.753-.434L8.197 9.26l.752.435-6.17 10.685zm4.307 2.539a1.034 1.034 0 01-1.211-1.674l3.322-2.404a1.029 1.029 0 011.425.208c.35.455.252 1.129-.213 1.466l-3.323 2.404zm2.574 1.848a1.038 1.038 0 01-1.43-.215c-.349-.463-.215-1.146.246-1.48l2.483-1.796c.09-.06.174-.124.275-.167a1.03 1.03 0 011.22.324c.35.456.252 1.13-.213 1.467L9.66 24.766zm2.574 1.848a1.026 1.026 0 01-.77.183 1.034 1.034 0 01-.443-1.857l1.77-1.28.07-.05a1.028 1.028 0 011.425.207c.35.456.251 1.13-.214 1.467l-1.838 1.33zm4.086.367c-.04.278-.189.523-.417.688l-1.095.793a1.043 1.043 0 01-1.443-.232 1.043 1.043 0 01.231-1.443l1.026-.742.07-.05a1.04 1.04 0 011.425.207c.172.223.244.5.203.779zm11.434-5.853a1.042 1.042 0 01-1.401.413l-5.43-2.96a.47.47 0 00-.45.825l4.55 2.48a1.034 1.034 0 01-.989 1.815l-4.617-2.517a.47.47 0 10-.45.825l3.739 2.037c.5.273.684.902.412 1.402-.27.494-.907.682-1.402.412l-3.913-2.133a.47.47 0 00-.45.825l3.034 1.654c.494.269.682.906.412 1.401a1.041 1.041 0 01-1.401.413l-2.128-1.16a1.955 1.955 0 00-.408-1.23 1.965 1.965 0 00-1.467-.772 1.957 1.957 0 00-.364-1.612 1.966 1.966 0 00-1.468-.773 1.957 1.957 0 00-.364-1.612 1.966 1.966 0 00-1.467-.773 1.957 1.957 0 00-.364-1.612 1.963 1.963 0 00-2.721-.397L5.37 20.45l-1.183-.63 4.637-8.031.873.507a.47.47 0 00.29.06l2.21-.259.803.338-.462 1.846a.47.47 0 00-.014.114v4.007a2.476 2.476 0 002.474 2.474 2.476 2.476 0 002.473-2.474V14.53l.086-.136 9.785 5.333c.495.27.683.907.413 1.402zm.224-2.11a1.995 1.995 0 00-.187-.117l-9.736-5.306.361-.578a.47.47 0 00-.797-.498l-1.016 1.627a.47.47 0 00-.072.248v4.008c0 .846-.688 1.534-1.534 1.534a1.536 1.536 0 01-1.534-1.534v-3.95l.899-3.596h5.068l2.571.85c.146.048.311.02.433-.073l.802-.614 5.618 7.377-.876.622zm3.946-16.401a.47.47 0 00-.648-.141l-2.632 1.689a.47.47 0 00.508.79l2.63-1.689a.47.47 0 00.142-.649z"/></g><defs><clipPath id="clip0_53_260"><path fill="#fff" d="M0 0h32v32H0z"/></clipPath></defs></svg>