<svg width="32" height="32" fill="none" xmlns="http://www.w3.org/2000/svg"><g clip-path="url(#clip0_53_269)" fill="#BA0F08"><path d="M15.39 20.714a.476.476 0 00-.673 0l-.963.963-1.836-1.836.964-.963a.476.476 0 10-.674-.673l-1.002 1.002a.872.872 0 00-.983.175l-5.584 5.584a.476.476 0 10.673.673l5.529-5.529 2.644 2.644-7.686 7.685a1.858 1.858 0 01-1.344.546 1.855 1.855 0 01-1.33-.578c-.695-.728-.667-1.913.062-2.642l.913-.914a.476.476 0 10-.673-.673l-.914.913c-1.09 1.092-1.126 2.874-.078 3.973a2.8 2.8 0 002.009.874h.034a2.8 2.8 0 001.994-.825l7.74-7.74a.875.875 0 00.176-.984l1.002-1.002a.476.476 0 000-.673zm14.905-8.071a.476.476 0 00-.829.47c.861 1.518.99 3.265.39 4.825-1.1-1.969-2.865-3.852-4.26-4.837l2.08-2.078.837.838a.475.475 0 00.674 0 .476.476 0 000-.674l-.838-.837.56-.559a.476.476 0 000-.673L24.53 4.74a.476.476 0 00-.67-.004.653.653 0 01-.166.119c-.387.195-.966.038-1.377-.373-.409-.409-.565-.968-.38-1.363a.643.643 0 01.126-.18.476.476 0 00-.004-.67L19.93.14a.476.476 0 00-.673 0l-4.643 4.644a.476.476 0 000 .673l2.13 2.13a.476.476 0 00.668.005.656.656 0 01.172-.12c.387-.19.962-.03 1.369.376.41.41.567.988.374 1.375a.665.665 0 01-.118.166.476.476 0 00.006.668l.57.571-4.086 4.086a.476.476 0 10.674.674l4.086-4.087 1.835 1.836-4.086 4.087a.476.476 0 10.673.673l4.087-4.087.622.623a.476.476 0 00.674 0l.648-.648c1.503 1.006 3.573 3.297 4.516 5.422a.476.476 0 00.846.048c1.2-2.045 1.208-4.516.02-6.61zM17.08 6.576l-1.456-1.457 3.97-3.97 1.456 1.457-3.97 3.97zm2.546.597a2.53 2.53 0 00-1.133-.664l2.488-2.488c.107.406.331.802.663 1.134.364.364.812.598 1.263.69l-2.592 2.592a2.503 2.503 0 00-.689-1.264zm4.3 6.25l-3.624-3.626 3.97-3.97 3.627 3.627-3.972 3.968z"/><path d="M28.735 27.061l-.764-.764a.476.476 0 10-.674.674l.764.764c.367.366.569.854.569 1.372 0 .519-.202 1.006-.569 1.373a1.928 1.928 0 01-1.372.568 1.929 1.929 0 01-1.373-.568l-4.493-4.493c.122-.23.187-.487.187-.754a1.6 1.6 0 00-.473-1.14 1.602 1.602 0 00-1.14-.473c-.268 0-.525.064-.755.186l-.34-.341 2.744-2.745.342.341a1.616 1.616 0 001.427 2.367c.267 0 .524-.065.754-.186l2.522 2.522a.476.476 0 10.673-.673l-2.809-2.809a.476.476 0 00-.673 0 .657.657 0 01-.935 0 .662.662 0 010-.935.476.476 0 000-.673l-.964-.964a.476.476 0 00-.673 0l-.056.056-.979-.979a.476.476 0 00-.673 0l-.217.218-11.88-11.88-.262-1.858a.476.476 0 00-.26-.36L3.138 3.29a.476.476 0 00-.55.09L.96 5.005a.476.476 0 00-.09.55l1.62 3.246a.48.48 0 00.359.26l1.857.261 1.347 1.347a.476.476 0 10.673-.673l-1.46-1.46a.476.476 0 00-.27-.134l-1.766-.25-1.355-2.716L3.02 4.294l2.716 1.354.25 1.767a.476.476 0 00.134.27l11.99 11.993-.852.852-9.58-9.581a.476.476 0 10-.674.673l9.581 9.581-.217.217a.476.476 0 000 .673l.978.98-.056.055a.476.476 0 000 .673l.965.964a.476.476 0 00.673 0 .657.657 0 01.935 0 .657.657 0 010 .935.476.476 0 000 .674l4.78 4.779a2.874 2.874 0 002.045.847c.773 0 1.5-.3 2.046-.847a2.874 2.874 0 00.847-2.046c0-.773-.301-1.5-.847-2.046zM18.02 22.4l-.642-.642 1.743-1.743.218-.217.642.642-1.96 1.96z"/></g><defs><clipPath id="clip0_53_269"><path fill="#fff" d="M0 0h32v32H0z"/></clipPath></defs></svg>