<svg width="32" height="32" fill="none" xmlns="http://www.w3.org/2000/svg"><g clip-path="url(#clip0_53_281)" fill="#BA0F08"><path d="M1.067 27.831A1.6 1.6 0 000 29.333v1.6C0 31.523.478 32 1.067 32h29.866c.59 0 1.067-.478 1.067-1.067v-1.6a1.6 1.6 0 00-1.067-1.502V8.437a1.52 1.52 0 00.591-.37A1.57 1.57 0 0032 6.933a1.6 1.6 0 00-1.6-1.6h-5.867V3.2a1.6 1.6 0 00-1.6-1.6h-6.948a4.022 4.022 0 00-.249-.267C14.24-.17 12.059-.435 10.875.743a2.43 2.43 0 00-.547.857H9.067a1.6 1.6 0 00-1.6 1.6v2.133H1.6A1.558 1.558 0 00.476 5.8 1.57 1.57 0 000 6.933a1.6 1.6 0 001.067 1.502v19.396zm0 1.502c0-.294.238-.533.533-.533h8.533v2.133H1.067v-1.6zm10.133 1.6V28.8h9.6v2.133h-9.6zm8-3.2h-6.4v-9.066c0-.59.478-1.067 1.067-1.067h4.266c.59 0 1.067.477 1.067 1.067v9.066zm2.667 3.2V28.8H30.4c.295 0 .533.239.533.533v1.6h-9.066zm8-3.2h-9.6v-9.066a2.133 2.133 0 00-2.134-2.134h-4.266a2.133 2.133 0 00-2.134 2.134v9.066h-9.6v-19.2h5.27l-1.48 2.962c-.004.006-.004.013-.007.02l-.013.035a.534.534 0 00-.032.16c0 .007-.004.013-.004.02v1.6A2.124 2.124 0 009.6 14.728a2.105 2.105 0 003.2 0 2.105 2.105 0 003.2 0 2.105 2.105 0 003.2 0 2.105 2.105 0 003.2 0 2.124 2.124 0 003.733-1.394v-1.6c0-.007-.003-.013-.004-.02a.534.534 0 00-.033-.16c-.004-.012-.007-.025-.012-.036-.005-.01-.003-.013-.007-.02l-1.48-2.964h5.27v19.2zM23.67 9.067l1.067 2.133H7.263L8.33 9.067h15.34zm-1.803 4.266a1.067 1.067 0 01-2.134 0v-1.066h2.134v1.066zm-3.2 0a1.067 1.067 0 01-2.134 0v-1.066h2.134v1.066zm-3.2 0a1.067 1.067 0 01-2.134 0v-1.066h2.134v1.066zm-3.2 0a1.067 1.067 0 01-2.134 0v-1.066h2.134v1.066zm-3.2 0a1.067 1.067 0 11-2.134 0v-1.066h2.134v1.066zm13.866-1.066h2.134v1.066a1.067 1.067 0 01-2.134 0v-1.066zM30.4 6.4c.295 0 .533.239.533.533a.521.521 0 01-.163.38.514.514 0 01-.37.154h-5.867V6.4H30.4zM11.24 2.248c.23.094.474.156.722.183a1.155 1.155 0 011.11 1.112c.038.522.266 1.012.64 1.377.364.374.853.602 1.374.64.096.013.18.028.258.046-.808.534-2.138.235-3.125-.756a3.005 3.005 0 01-.979-2.602zm3.742-.16a3.005 3.005 0 01.978 2.6 2.688 2.688 0 00-.722-.184 1.155 1.155 0 01-1.11-1.114 2.141 2.141 0 00-.64-1.377 2.137 2.137 0 00-1.374-.64 2.81 2.81 0 01-.267-.049c.278-.18.604-.272.935-.266a3.246 3.246 0 012.2 1.028v.002zM8.533 3.2c0-.295.24-.533.534-.533h1.075A4.293 4.293 0 0011.464 5.6a4.286 4.286 0 002.962 1.325 2.643 2.643 0 001.9-.737c.857-.861.945-2.253.351-3.524h6.256c.295 0 .534.24.534.534v4.8H8.533V3.2zM1.23 6.553A.515.515 0 011.6 6.4h5.867v1.067H1.6a.533.533 0 01-.533-.534.52.52 0 01.163-.38z"/><path d="M8.533 16.533h-3.2A2.133 2.133 0 003.2 18.666v4.8c0 .59.478 1.067 1.067 1.067H9.6c.59 0 1.067-.477 1.067-1.067v-4.8a2.133 2.133 0 00-2.134-2.133zm-3.2 1.067h3.2c.59 0 1.067.477 1.067 1.066v2.667H4.267v-2.666c0-.59.477-1.067 1.066-1.067zm-1.066 5.866V22.4H9.6v1.067H4.267zm22.4-6.933h-3.2a2.133 2.133 0 00-2.134 2.133v4.8c0 .59.478 1.067 1.067 1.067h5.333c.59 0 1.067-.477 1.067-1.067v-4.8a2.133 2.133 0 00-2.133-2.133zm-3.2 1.067h3.2c.589 0 1.066.477 1.066 1.066v2.667H22.4v-2.666c0-.59.478-1.067 1.067-1.067zM22.4 23.466V22.4h5.333v1.067H22.4zm-4.8-2.132a.533.533 0 00-.533.533v1.6a.533.533 0 101.066 0v-1.6a.533.533 0 00-.533-.534zM18.667 4.8h3.2a.533.533 0 100-1.067h-3.2a.533.533 0 000 1.067zM20.8 5.867h-1.067a.533.533 0 100 1.066H20.8a.533.533 0 000-1.066z"/></g><defs><clipPath id="clip0_53_281"><path fill="#fff" d="M0 0h32v32H0z"/></clipPath></defs></svg>